<mxfile host="app.diagrams.net" modified="2024-05-03T10:09:03.241Z" agent="Mozilla/5.0 (Windows NT 10.0; Win64; x64) AppleWebKit/537.36 (KHTML, like Gecko) Chrome/124.0.0.0 Safari/537.36" etag="JxiSmNzG61XaYG2PGduH" version="24.3.1" type="github">
  <diagram name="Page-1" id="ZNwxtEHFsRK7ht1TDN3M">
    <mxGraphModel dx="1050" dy="564" grid="1" gridSize="10" guides="1" tooltips="1" connect="1" arrows="1" fold="1" page="1" pageScale="1" pageWidth="850" pageHeight="1100" math="0" shadow="0">
      <root>
        <mxCell id="0" />
        <mxCell id="1" parent="0" />
        <mxCell id="SI0bCsyjwatuf6Ki47o4-1" value="" style="whiteSpace=wrap;html=1;aspect=fixed;" vertex="1" parent="1">
          <mxGeometry x="320" y="170" width="180" height="180" as="geometry" />
        </mxCell>
        <mxCell id="SI0bCsyjwatuf6Ki47o4-2" value="Actor" style="shape=umlActor;verticalLabelPosition=bottom;verticalAlign=top;html=1;outlineConnect=0;" vertex="1" parent="1">
          <mxGeometry x="360" y="230" width="30" height="60" as="geometry" />
        </mxCell>
        <mxCell id="SI0bCsyjwatuf6Ki47o4-3" value="Actor" style="shape=umlActor;verticalLabelPosition=bottom;verticalAlign=top;html=1;outlineConnect=0;" vertex="1" parent="1">
          <mxGeometry x="440" y="207.5" width="30" height="60" as="geometry" />
        </mxCell>
        <mxCell id="SI0bCsyjwatuf6Ki47o4-5" value="" style="shape=hexagon;perimeter=hexagonPerimeter2;whiteSpace=wrap;html=1;fixedSize=1;rotation=90;" vertex="1" parent="1">
          <mxGeometry x="310" y="245" width="65" height="30" as="geometry" />
        </mxCell>
        <mxCell id="SI0bCsyjwatuf6Ki47o4-6" value="" style="triangle;whiteSpace=wrap;html=1;rotation=90;" vertex="1" parent="1">
          <mxGeometry x="461.25" y="230" width="27.5" height="30" as="geometry" />
        </mxCell>
        <mxCell id="SI0bCsyjwatuf6Ki47o4-7" value="" style="ellipse;shape=cloud;whiteSpace=wrap;html=1;" vertex="1" parent="1">
          <mxGeometry x="470" y="300" width="30" height="40" as="geometry" />
        </mxCell>
        <mxCell id="SI0bCsyjwatuf6Ki47o4-8" value="" style="ellipse;shape=cloud;whiteSpace=wrap;html=1;" vertex="1" parent="1">
          <mxGeometry x="332.5" y="245" width="20" height="30" as="geometry" />
        </mxCell>
        <mxCell id="SI0bCsyjwatuf6Ki47o4-9" value="" style="ellipse;shape=cloud;whiteSpace=wrap;html=1;" vertex="1" parent="1">
          <mxGeometry x="440" y="300" width="30" height="40" as="geometry" />
        </mxCell>
        <mxCell id="SI0bCsyjwatuf6Ki47o4-10" value="" style="shape=dataStorage;whiteSpace=wrap;html=1;fixedSize=1;rotation=90;" vertex="1" parent="1">
          <mxGeometry x="340" y="340" width="100" height="80" as="geometry" />
        </mxCell>
        <mxCell id="SI0bCsyjwatuf6Ki47o4-11" value="" style="shape=trapezoid;perimeter=trapezoidPerimeter;whiteSpace=wrap;html=1;fixedSize=1;rotation=90;" vertex="1" parent="1">
          <mxGeometry x="310" y="390" width="50" height="30" as="geometry" />
        </mxCell>
        <object label="" id="SI0bCsyjwatuf6Ki47o4-14">
          <mxCell style="rounded=0;whiteSpace=wrap;html=1;" vertex="1" parent="1">
            <mxGeometry x="320" y="110" width="180" height="60" as="geometry" />
          </mxCell>
        </object>
        <mxCell id="SI0bCsyjwatuf6Ki47o4-16" value="Airlock / Storage" style="text;html=1;align=center;verticalAlign=middle;whiteSpace=wrap;rounded=0;" vertex="1" parent="1">
          <mxGeometry x="330" y="125" width="60" height="30" as="geometry" />
        </mxCell>
        <mxCell id="SI0bCsyjwatuf6Ki47o4-17" value="Nutrient Paste dispenser" style="text;html=1;align=center;verticalAlign=middle;whiteSpace=wrap;rounded=0;" vertex="1" parent="1">
          <mxGeometry x="360" y="360" width="60" height="30" as="geometry" />
        </mxCell>
        <mxCell id="SI0bCsyjwatuf6Ki47o4-18" value="" style="shape=callout;whiteSpace=wrap;html=1;perimeter=calloutPerimeter;base=20;size=30;position=0.75;position2=0.92;" vertex="1" parent="1">
          <mxGeometry x="200" y="180" width="120" height="80" as="geometry" />
        </mxCell>
        <mxCell id="SI0bCsyjwatuf6Ki47o4-19" value="Stone cutter" style="text;html=1;align=center;verticalAlign=middle;whiteSpace=wrap;rounded=0;" vertex="1" parent="1">
          <mxGeometry x="230" y="190" width="60" height="30" as="geometry" />
        </mxCell>
        <mxCell id="SI0bCsyjwatuf6Ki47o4-21" value="" style="shape=callout;whiteSpace=wrap;html=1;perimeter=calloutPerimeter;base=20;size=30;position=0.08;position2=0.08;" vertex="1" parent="1">
          <mxGeometry x="500" y="180" width="130" height="80" as="geometry" />
        </mxCell>
        <mxCell id="SI0bCsyjwatuf6Ki47o4-22" value="Deep drill on stone" style="text;html=1;align=center;verticalAlign=middle;whiteSpace=wrap;rounded=0;" vertex="1" parent="1">
          <mxGeometry x="530" y="190" width="60" height="30" as="geometry" />
        </mxCell>
        <mxCell id="SI0bCsyjwatuf6Ki47o4-24" value="" style="endArrow=classic;html=1;rounded=0;entryX=0.5;entryY=1;entryDx=0;entryDy=0;" edge="1" parent="1" target="SI0bCsyjwatuf6Ki47o4-14">
          <mxGeometry width="50" height="50" relative="1" as="geometry">
            <mxPoint x="590" y="80" as="sourcePoint" />
            <mxPoint x="640" y="75" as="targetPoint" />
          </mxGeometry>
        </mxCell>
        <mxCell id="SI0bCsyjwatuf6Ki47o4-25" value="" style="endArrow=classic;html=1;rounded=0;entryX=0.5;entryY=1;entryDx=0;entryDy=0;" edge="1" parent="1">
          <mxGeometry width="50" height="50" relative="1" as="geometry">
            <mxPoint x="590" y="20" as="sourcePoint" />
            <mxPoint x="410" y="110" as="targetPoint" />
          </mxGeometry>
        </mxCell>
        <mxCell id="SI0bCsyjwatuf6Ki47o4-27" value="Normally closed gap in wall" style="text;html=1;align=center;verticalAlign=middle;whiteSpace=wrap;rounded=0;" vertex="1" parent="1">
          <mxGeometry x="590" y="10" width="60" height="30" as="geometry" />
        </mxCell>
        <mxCell id="SI0bCsyjwatuf6Ki47o4-28" value="Normally opened gap in wall" style="text;html=1;align=center;verticalAlign=middle;whiteSpace=wrap;rounded=0;" vertex="1" parent="1">
          <mxGeometry x="590" y="60" width="60" height="30" as="geometry" />
        </mxCell>
        <mxCell id="SI0bCsyjwatuf6Ki47o4-29" value="When access is needed to interior, normally opened wall must be closed first with a wall. Wardens are then free to access storage area via normally closed gap in the wall by deconstructing it. Once resources are extracted, seal back up normally closed entrance with a wall. Normally open entrance can now be re-opened&amp;nbsp;&amp;nbsp;" style="text;html=1;align=center;verticalAlign=middle;whiteSpace=wrap;rounded=0;" vertex="1" parent="1">
          <mxGeometry x="50" y="40" width="240" height="90" as="geometry" />
        </mxCell>
      </root>
    </mxGraphModel>
  </diagram>
</mxfile>
